# xmcd
#
# Track frame offsets: 
#        750
#        11920
#        43337
#        76797
#        85497
#        125585
#        131725
#        154167
#        169057
#        199832
#        227520
#        235067
#        255837
#        309165
#
# Disc length: 4130 seconds
#
# Revision: 6
# Processed by: cddbd v1.5.2PL0 Copyright (c) Steve Scherf et al.
# Submitted via: ExactAudioCopyFreeDBPlugin 1.0
#
DISCID=ac10180e
DTITLE=Lauryn Hill - MTV Unplugged 2.0 [CD1]
DYEAR=2002
DGENRE=R&B
TTITLE0=Intro
TTITLE1=Mr. Intentional
TTITLE2=Adam Lives In Theory
TTITLE3=Interlude 1
TTITLE4=Oh Jerusalem
TTITLE5=Interlude 2
TTITLE6=Freedom Time
TTITLE7=Interlude 3
TTITLE8=I Find It Hard to Say (Rebel)
TTITLE9=Just Like Water
TTITLE10=Interlude 4
TTITLE11=Just Want You Around
TTITLE12=I Gotta Find Peace Of Mind
TTITLE13=[Cracked Copy Protection Track]
EXTD=ID3G: 0
EXTT0=
EXTT1=
EXTT2=
EXTT3=
EXTT4=
EXTT5=
EXTT6=
EXTT7=
EXTT8=
EXTT9=
EXTT10=
EXTT11=
EXTT12=
EXTT13=
PLAYORDER=
